<?xml version="1.0" standalone="no"?><!DOCTYPE svg PUBLIC "-//W3C//DTD SVG 1.1//EN" "http://www.w3.org/Graphics/SVG/1.1/DTD/svg11.dtd"><svg t="1683948442186" class="icon" viewBox="0 0 1024 1024" version="1.1" xmlns="http://www.w3.org/2000/svg" p-id="3180" data-spm-anchor-id="a313x.7781069.0.i9" xmlns:xlink="http://www.w3.org/1999/xlink" width="200" height="200"><path d="M520.827586 769.588966l41.383724-4.378483c4.872828-0.459034 16.878345-1.836138 25.423449-3.213242 0.459034-7.874207 0.459034-18.502621 0.459034-24.081655v-241.628689l-43.008-52.047449a38.170483 38.170483 0 0 0-27.965793-12.923586c-10.628414 0-20.833103 4.590345-27.965793 12.464552l-89.723586 97.103448c-2.330483 2.330483-4.872828 4.660966-7.168 6.956138a28.071724 28.071724 0 0 1-18.290759 6.956138c-7.415172 0-12.711724-3.248552-19.173517-7.874207l-31.214345-26.341517c-6.956138-5.543724-12.958897-9.498483-21.292138-9.498483a27.895172 27.895172 0 0 0-21.256828 10.416552L115.67669 699.497931 116.171034 265.039448a21.186207 21.186207 0 0 1 21.539311-20.126896h597.062621c11.29931 0 20.126897 8.121379 21.963034 19.667862v35.133793h3.919448c17.584552 0 34.003862 1.165241 49.505104 3.001379V238.697931c0-26.129655-20.833103-47.13931-46.715586-47.13931H108.967724c-26.129655 0-46.680276 21.256828-46.680276 47.13931v546.427586c0 26.129655 20.797793 47.174621 46.680276 47.174621h412.071724v-62.675862h-0.211862zM245.865931 298.089931a79.942621 79.942621 0 0 0-78.600828 81.637517 79.942621 79.942621 0 0 0 81.602207 78.636138 80.083862 80.083862 0 0 0 78.636138-78.636138 80.401655 80.401655 0 0 0-78.636138-81.637517h-3.001379z" p-id="3181" data-spm-anchor-id="a313x.7781069.0.i7" class="selected" fill="#10a37f"></path><path d="M799.214345 631.419586l147.809103-85.345103-147.809103-85.345104v53.459862h-146.255448v63.805793h146.255448zM779.440552 844.729379l-147.809104-85.309793 147.809104-85.345103v53.424551h146.220138v63.805794h-146.184828z" p-id="3182" data-spm-anchor-id="a313x.7781069.0.i8" class="" fill="#ffffff"></path></svg>