<?xml version="1.0" standalone="no"?><!DOCTYPE svg PUBLIC "-//W3C//DTD SVG 1.1//EN" "http://www.w3.org/Graphics/SVG/1.1/DTD/svg11.dtd"><svg t="1683948287065" class="icon" viewBox="0 0 1024 1024" version="1.1" xmlns="http://www.w3.org/2000/svg" p-id="2668" xmlns:xlink="http://www.w3.org/1999/xlink" width="200" height="200"><path d="M532.020966 779.22869l41.666206-4.307862c4.872828-0.459034 16.948966-1.800828 25.56469-3.177931 0.459034-7.697655 0.459034-18.149517 0.459035-23.587311V510.94069l-43.255173-51.058759a38.841379 38.841379 0 0 0-28.177655-12.711724c-10.699034 0-20.939034 4.519724-28.142345 12.25269l-90.288552 95.337931c-2.295172 2.259862-4.872828 4.519724-7.20331 6.779586a28.672 28.672 0 0 1-18.361379 6.814896c-7.450483 0-12.817655-3.177931-19.314759-7.697655l-31.426207-25.882483c-6.991448-5.437793-13.064828-9.286621-21.398069-9.28662a28.318897 28.318897 0 0 0-21.398069 10.204689L124.363034 710.444138l0.459035-426.443035a21.115586 21.115586 0 0 1 21.645241-19.773793h600.770207c11.405241 0 20.268138 7.980138 22.104276 19.314759v34.498207h3.954759c17.690483 0 34.215724 1.129931 49.787586 2.930758v-62.852413c0-25.63531-20.903724-46.291862-46.962759-46.291862H117.583448C91.312552 211.862069 70.62069 232.730483 70.62069 258.153931V794.482759c0 25.63531 20.939034 46.256552 46.998069 46.256551h414.614069v-61.47531h-0.211862zM255.364414 316.486621c-44.455724 0.670897-80.048552 36.510897-79.095173 80.119172 0.706207 43.325793 37.428966 78.035862 82.131862 77.153104 43.255172-0.706207 78.388966-34.957241 79.095173-77.153104 0.706207-43.361103-34.674759-79.201103-79.095173-80.154483h-3.036689z" p-id="2669" data-spm-anchor-id="a313x.7781069.0.i0" class="" fill="#10a37f"></path><path d="M949.601103 490.107586v44.667586H1024V400.772414H651.934897v134.002758h74.398896V490.107586h74.434207v268.005517h-37.217103V847.448276h148.833103v-89.335173h-37.217103v-268.005517z" p-id="2670" data-spm-anchor-id="a313x.7781069.0.i3" class="selected" fill="#ffffff"></path></svg>